<?xml version="1.0" standalone="no"?>
<!DOCTYPE svg PUBLIC "-//W3C//DTD SVG 20010904//EN"
 "http://www.w3.org/TR/2001/REC-SVG-20010904/DTD/svg10.dtd">
<svg version="1.0" xmlns="http://www.w3.org/2000/svg"
 width="411.000000pt" height="411.000000pt" viewBox="0 0 411.000000 411.000000"
 preserveAspectRatio="xMidYMid meet">
<metadata>
Created by potrace 1.11, written by Peter Selinger 2001-2013
</metadata>
<g transform="translate(0.000000,411.000000) scale(0.100000,-0.100000)"
fill="#000000" stroke="none">
<path d="M1899 3536 c-2 -2 -35 -7 -74 -11 -38 -4 -72 -8 -75 -10 -3 -2 -25
-6 -49 -10 -120 -18 -318 -89 -470 -167 -88 -46 -221 -130 -252 -160 -8 -7
-32 -26 -54 -43 -44 -33 -204 -191 -248 -246 -130 -161 -265 -411 -314 -584
-7 -27 -16 -57 -18 -65 -14 -47 -34 -138 -40 -178 -20 -141 -23 -181 -20 -332
2 -95 10 -199 19 -245 8 -44 18 -93 21 -110 8 -45 64 -226 80 -260 90 -196
160 -321 229 -406 11 -15 32 -41 46 -59 28 -37 190 -202 235 -240 42 -35 143
-110 149 -110 2 0 26 -15 53 -32 89 -60 262 -141 388 -181 205 -66 357 -87
585 -82 172 4 176 4 331 36 167 33 428 136 542 213 20 14 37 22 37 18 0 -4 4
-2 8 3 4 6 36 31 72 57 95 67 135 102 237 208 114 116 111 113 164 191 24 35
47 65 52 67 4 2 7 10 7 18 0 8 3 14 8 14 4 0 12 9 17 19 6 11 31 59 56 108 68
129 147 351 165 463 32 210 41 416 23 545 -4 33 -11 82 -14 109 -3 27 -8 53
-11 58 -3 5 -7 18 -10 31 -2 12 -6 32 -8 43 -20 101 -162 442 -188 452 -4 2
-8 8 -8 13 0 15 -98 158 -154 224 -113 134 -251 259 -394 354 -68 45 -252 143
-292 156 -14 4 -38 13 -55 21 -76 33 -193 64 -385 99 -38 7 -385 17 -391 11z"/>
</g>
</svg>
